<mxfile host="app.diagrams.net" modified="2025-05-01T04:25:00.000Z" agent="Mozilla/5.0" etag="h2u_wYKQlNe7Yr9PrjY5" version="21.0.0" type="device">
  <diagram id="C5RBs43oDa-KdzZeNtuy" name="Brand Mentions Flow">
    <mxGraphModel dx="1223" dy="871" grid="1" gridSize="10" guides="1" tooltips="1" connect="1" arrows="1" fold="1" page="1" pageScale="1" pageWidth="827" pageHeight="1169" math="0" shadow="0">
      <root>
        <mxCell id="WIyWlLk6GJQsqaUBKTNV-0" />
        <mxCell id="WIyWlLk6GJQsqaUBKTNV-1" parent="WIyWlLk6GJQsqaUBKTNV-0" />
        
        <!-- Title -->
        <mxCell id="title" value="Project Scout: Brand Insights Flow" style="text;html=1;strokeColor=none;fillColor=none;align=center;verticalAlign=middle;whiteSpace=wrap;rounded=0;fontSize=22;fontStyle=1;fontFamily=Helvetica Neue,Helvetica,Arial,sans-serif;" vertex="1" parent="WIyWlLk6GJQsqaUBKTNV-1">
          <mxGeometry x="180" y="20" width="460" height="40" as="geometry" />
        </mxCell>
        
        <!-- TBWA Logo -->
        <mxCell id="tbwa_logo" value="TBWA\DISRUPTIONÂ®" style="text;html=1;strokeColor=none;fillColor=none;align=right;verticalAlign=middle;whiteSpace=wrap;rounded=0;fontSize=14;fontStyle=1;fontFamily=Helvetica Neue,Helvetica,Arial,sans-serif;" vertex="1" parent="WIyWlLk6GJQsqaUBKTNV-1">
          <mxGeometry x="650" y="30" width="160" height="20" as="geometry" />
        </mxCell>

        <!-- Data Sources -->
        <mxCell id="data_source_1" value="Raspberry Pi<br>(STT Transcripts)" style="shape=parallelogram;perimeter=parallelogramPerimeter;whiteSpace=wrap;html=1;fixedSize=1;fillColor=#F2F2F2;strokeColor=#2C2C2C;strokeWidth=2;fontFamily=Helvetica Neue,Helvetica,Arial,sans-serif;fontStyle=1" vertex="1" parent="WIyWlLk6GJQsqaUBKTNV-1">
          <mxGeometry x="140" y="80" width="140" height="60" as="geometry" />
        </mxCell>
        
        <mxCell id="data_source_2" value="Shelf Camera<br>(Image Data)" style="shape=parallelogram;perimeter=parallelogramPerimeter;whiteSpace=wrap;html=1;fixedSize=1;fillColor=#F2F2F2;strokeColor=#2C2C2C;strokeWidth=2;fontFamily=Helvetica Neue,Helvetica,Arial,sans-serif;fontStyle=1" vertex="1" parent="WIyWlLk6GJQsqaUBKTNV-1">
          <mxGeometry x="330" y="80" width="140" height="60" as="geometry" />
        </mxCell>
        
        <mxCell id="data_source_3" value="Chat Interactions<br>(Text Data)" style="shape=parallelogram;perimeter=parallelogramPerimeter;whiteSpace=wrap;html=1;fixedSize=1;fillColor=#FF6A00;strokeColor=#2C2C2C;strokeWidth=2;fontFamily=Helvetica Neue,Helvetica,Arial,sans-serif;fontStyle=1;fontColor=#FFFFFF;" vertex="1" parent="WIyWlLk6GJQsqaUBKTNV-1">
          <mxGeometry x="520" y="80" width="140" height="60" as="geometry" />
        </mxCell>
        
        <!-- Bronze Layer -->
        <mxCell id="bronze_layer_box" value="" style="rounded=0;whiteSpace=wrap;html=1;fillColor=#F2F2F2;strokeColor=#2C2C2C;strokeWidth=2;opacity=80;" vertex="1" parent="WIyWlLk6GJQsqaUBKTNV-1">
          <mxGeometry x="90" y="180" width="640" height="120" as="geometry" />
        </mxCell>
        
        <mxCell id="bronze_layer_title" value="<div style="text-align: left;">RAW DATA LAYER</div>" style="text;html=1;strokeColor=none;fillColor=none;align=left;verticalAlign=middle;whiteSpace=wrap;rounded=0;fontSize=16;fontStyle=1;fontFamily=Helvetica Neue,Helvetica,Arial,sans-serif;" vertex="1" parent="WIyWlLk6GJQsqaUBKTNV-1">
          <mxGeometry x="100" y="190" width="150" height="30" as="geometry" />
        </mxCell>
        
        <mxCell id="event_hub" value="Azure EventHub<br>(Data Ingestion)" style="rounded=0;whiteSpace=wrap;html=1;fillColor=#000000;strokeColor=#2C2C2C;strokeWidth=2;fontFamily=Helvetica Neue,Helvetica,Arial,sans-serif;fontStyle=1;fontColor=#FFFFFF;" vertex="1" parent="WIyWlLk6GJQsqaUBKTNV-1">
          <mxGeometry x="320" y="220" width="160" height="60" as="geometry" />
        </mxCell>
        
        <mxCell id="bronze_storage" value="Data Lake Storage<br>/bronze/audio_raw/<br>/bronze/images_raw/<br>/bronze/chat_raw/" style="shape=cylinder3;whiteSpace=wrap;html=1;boundedLbl=1;backgroundOutline=1;size=15;fillColor=#F2F2F2;strokeColor=#2C2C2C;strokeWidth=2;fontFamily=Helvetica Neue,Helvetica,Arial,sans-serif;fontStyle=1" vertex="1" parent="WIyWlLk6GJQsqaUBKTNV-1">
          <mxGeometry x="520" y="200" width="180" height="80" as="geometry" />
        </mxCell>
        
        <!-- Silver Layer -->
        <mxCell id="silver_layer_box" value="" style="rounded=0;whiteSpace=wrap;html=1;fillColor=#0033A0;strokeColor=#2C2C2C;strokeWidth=2;opacity=10;" vertex="1" parent="WIyWlLk6GJQsqaUBKTNV-1">
          <mxGeometry x="90" y="320" width="640" height="200" as="geometry" />
        </mxCell>
        
        <mxCell id="silver_layer_title" value="<div style="text-align: left;">PROCESSING LAYER</div>" style="text;html=1;strokeColor=none;fillColor=none;align=left;verticalAlign=middle;whiteSpace=wrap;rounded=0;fontSize=16;fontStyle=1;fontFamily=Helvetica Neue,Helvetica,Arial,sans-serif;" vertex="1" parent="WIyWlLk6GJQsqaUBKTNV-1">
          <mxGeometry x="100" y="330" width="150" height="30" as="geometry" />
        </mxCell>
        
        <mxCell id="azure_ml" value="Azure ML Workspace" style="rounded=0;whiteSpace=wrap;html=1;fillColor=#0033A0;strokeColor=#2C2C2C;strokeWidth=2;fontFamily=Helvetica Neue,Helvetica,Arial,sans-serif;fontStyle=1;fontColor=#FFFFFF;" vertex="1" parent="WIyWlLk6GJQsqaUBKTNV-1">
          <mxGeometry x="180" y="370" width="160" height="40" as="geometry" />
        </mxCell>
        
        <mxCell id="genai_enricher" value="Brand Detection Engine<br>(LLM-powered)" style="shape=process;whiteSpace=wrap;html=1;backgroundOutline=1;fillColor=#0033A0;strokeColor=#2C2C2C;strokeWidth=2;fontFamily=Helvetica Neue,Helvetica,Arial,sans-serif;fontStyle=1;fontColor=#FFFFFF;" vertex="1" parent="WIyWlLk6GJQsqaUBKTNV-1">
          <mxGeometry x="180" y="440" width="160" height="60" as="geometry" />
        </mxCell>
        
        <mxCell id="validation" value="Data Validation<br>Quality Checks" style="rhombus;whiteSpace=wrap;html=1;fillColor=#D72638;strokeColor=#2C2C2C;strokeWidth=2;fontFamily=Helvetica Neue,Helvetica,Arial,sans-serif;fontStyle=1;fontColor=#FFFFFF;" vertex="1" parent="WIyWlLk6GJQsqaUBKTNV-1">
          <mxGeometry x="413.5" y="370" width="160" height="130" as="geometry" />
        </mxCell>
        
        <mxCell id="pulser_ops" value="Workflow Automation:<br>- Enrichment Pipeline<br>- QA Validation<br>- Metadata Tagging" style="rounded=0;whiteSpace=wrap;html=1;fillColor=#000000;strokeColor=#2C2C2C;strokeWidth=2;fontFamily=Helvetica Neue,Helvetica,Arial,sans-serif;fontStyle=1;fontColor=#FFFFFF;" vertex="1" parent="WIyWlLk6GJQsqaUBKTNV-1">
          <mxGeometry x="590" y="390" width="120" height="80" as="geometry" />
        </mxCell>
        
        <!-- Gold Layer -->
        <mxCell id="gold_layer_box" value="" style="rounded=0;whiteSpace=wrap;html=1;fillColor=#FFD700;strokeColor=#2C2C2C;strokeWidth=2;opacity=20;" vertex="1" parent="WIyWlLk6GJQsqaUBKTNV-1">
          <mxGeometry x="90" y="540" width="640" height="200" as="geometry" />
        </mxCell>
        
        <mxCell id="gold_layer_title" value="<div style="text-align: left;">INSIGHTS LAYER</div>" style="text;html=1;strokeColor=none;fillColor=none;align=left;verticalAlign=middle;whiteSpace=wrap;rounded=0;fontSize=16;fontStyle=1;fontFamily=Helvetica Neue,Helvetica,Arial,sans-serif;" vertex="1" parent="WIyWlLk6GJQsqaUBKTNV-1">
          <mxGeometry x="100" y="550" width="150" height="30" as="geometry" />
        </mxCell>
        
        <mxCell id="azure_sql" value="Azure SQL" style="shape=cylinder3;whiteSpace=wrap;html=1;boundedLbl=1;backgroundOutline=1;size=15;fillColor=#0033A0;strokeColor=#2C2C2C;strokeWidth=2;fontFamily=Helvetica Neue,Helvetica,Arial,sans-serif;fontStyle=1;fontColor=#FFFFFF;" vertex="1" parent="WIyWlLk6GJQsqaUBKTNV-1">
          <mxGeometry x="180" y="570" width="120" height="80" as="geometry" />
        </mxCell>
        
        <mxCell id="brand_mentions_table" value="<div style="text-align: left;"><b>Brand Insights Table</b><br>insight_id<br>source_id<br>brand_name<br>product_line<br>category<br>mention_context<br>timestamp<br>confidence_score</div>" style="shape=internalStorage;whiteSpace=wrap;html=1;backgroundOutline=1;fillColor=#FFD700;strokeColor=#2C2C2C;strokeWidth=2;fontFamily=Helvetica Neue,Helvetica,Arial,sans-serif;" vertex="1" parent="WIyWlLk6GJQsqaUBKTNV-1">
          <mxGeometry x="140" y="670" width="160" height="160" as="geometry" />
        </mxCell>
        
        <mxCell id="mention_scores_table" value="<div style="text-align: left;"><b>Insight Analytics Table</b><br>analytics_id<br>insight_id<br>sentiment_score<br>intent_score<br>relevance_score<br>actionability_score<br>timeliness_score<br>value_index</div>" style="shape=internalStorage;whiteSpace=wrap;html=1;backgroundOutline=1;fillColor=#FFD700;strokeColor=#2C2C2C;strokeWidth=2;fontFamily=Helvetica Neue,Helvetica,Arial,sans-serif;" vertex="1" parent="WIyWlLk6GJQsqaUBKTNV-1">
          <mxGeometry x="320" y="670" width="160" height="160" as="geometry" />
        </mxCell>
        
        <mxCell id="event_hub_out" value="Real-time Insights<br>(Event Stream)" style="rounded=0;whiteSpace=wrap;html=1;fillColor=#FF6A00;strokeColor=#2C2C2C;strokeWidth=2;fontFamily=Helvetica Neue,Helvetica,Arial,sans-serif;fontStyle=1;fontColor=#FFFFFF;" vertex="1" parent="WIyWlLk6GJQsqaUBKTNV-1">
          <mxGeometry x="500" y="580" width="170" height="60" as="geometry" />
        </mxCell>
        
        <!-- Dashboard Layer -->
        <mxCell id="dashboard_layer_box" value="" style="rounded=0;whiteSpace=wrap;html=1;fillColor=#FFD700;strokeColor=#2C2C2C;strokeWidth=3;opacity=80;" vertex="1" parent="WIyWlLk6GJQsqaUBKTNV-1">
          <mxGeometry x="90" y="850" width="640" height="120" as="geometry" />
        </mxCell>
        
        <mxCell id="dashboard_layer_title" value="<div style="text-align: left;">VISUALIZATION LAYER</div>" style="text;html=1;strokeColor=none;fillColor=none;align=left;verticalAlign=middle;whiteSpace=wrap;rounded=0;fontSize=16;fontStyle=1;fontFamily=Helvetica Neue,Helvetica,Arial,sans-serif;" vertex="1" parent="WIyWlLk6GJQsqaUBKTNV-1">
          <mxGeometry x="100" y="860" width="170" height="30" as="geometry" />
        </mxCell>
        
        <mxCell id="react_dashboard" value="Brand Insights Dashboard" style="rounded=0;whiteSpace=wrap;html=1;fillColor=#FFD700;strokeColor=#2C2C2C;strokeWidth=2;fontFamily=Helvetica Neue,Helvetica,Arial,sans-serif;fontStyle=1" vertex="1" parent="WIyWlLk6GJQsqaUBKTNV-1">
          <mxGeometry x="200" y="890" width="420" height="60" as="geometry" />
        </mxCell>
        
        <!-- Governance -->
        <mxCell id="governance_box" value="" style="rounded=0;whiteSpace=wrap;html=1;fillColor=#000000;strokeColor=#2C2C2C;strokeWidth=2;opacity=90;" vertex="1" parent="WIyWlLk6GJQsqaUBKTNV-1">
          <mxGeometry x="750" y="180" width="160" height="670" as="geometry" />
        </mxCell>
        
        <mxCell id="governance_title" value="GOVERNANCE" style="text;html=1;strokeColor=none;fillColor=none;align=center;verticalAlign=middle;whiteSpace=wrap;rounded=0;fontSize=16;fontStyle=1;fontFamily=Helvetica Neue,Helvetica,Arial,sans-serif;fontColor=#FFFFFF;" vertex="1" parent="WIyWlLk6GJQsqaUBKTNV-1">
          <mxGeometry x="770" y="190" width="120" height="30" as="geometry" />
        </mxCell>
        
        <mxCell id="key_vault" value="Azure Key Vault<br>(Secure Credentials)" style="shape=hexagon;perimeter=hexagonPerimeter2;whiteSpace=wrap;html=1;fixedSize=1;fillColor=#F2F2F2;strokeColor=#2C2C2C;strokeWidth=2;fontFamily=Helvetica Neue,Helvetica,Arial,sans-serif;fontStyle=1" vertex="1" parent="WIyWlLk6GJQsqaUBKTNV-1">
          <mxGeometry x="770" y="240" width="120" height="80" as="geometry" />
        </mxCell>
        
        <mxCell id="metadata" value="Metadata Store<br>(YAML Config)" style="shape=document;whiteSpace=wrap;html=1;boundedLbl=1;fillColor=#F2F2F2;strokeColor=#2C2C2C;strokeWidth=2;fontFamily=Helvetica Neue,Helvetica,Arial,sans-serif;fontStyle=1" vertex="1" parent="WIyWlLk6GJQsqaUBKTNV-1">
          <mxGeometry x="770" y="350" width="120" height="80" as="geometry" />
        </mxCell>
        
        <mxCell id="qa_monitoring" value="Quality Assurance<br>Monitoring Service" style="rounded=0;whiteSpace=wrap;html=1;fillColor=#D72638;strokeColor=#2C2C2C;strokeWidth=2;fontFamily=Helvetica Neue,Helvetica,Arial,sans-serif;fontStyle=1;fontColor=#FFFFFF;" vertex="1" parent="WIyWlLk6GJQsqaUBKTNV-1">
          <mxGeometry x="770" y="460" width="120" height="60" as="geometry" />
        </mxCell>
        
        <!-- Connections -->
        <mxCell id="conn_1" value="" style="endArrow=block;html=1;rounded=0;exitX=0.5;exitY=1;exitDx=0;exitDy=0;entryX=0.25;entryY=0;entryDx=0;entryDy=0;endFill=1;strokeWidth=2;strokeColor=#2C2C2C;" edge="1" parent="WIyWlLk6GJQsqaUBKTNV-1" source="data_source_1" target="event_hub">
          <mxGeometry width="50" height="50" relative="1" as="geometry">
            <mxPoint x="390" y="410" as="sourcePoint" />
            <mxPoint x="440" y="360" as="targetPoint" />
          </mxGeometry>
        </mxCell>
        
        <mxCell id="conn_2" value="" style="endArrow=block;html=1;rounded=0;exitX=0.5;exitY=1;exitDx=0;exitDy=0;entryX=0.5;entryY=0;entryDx=0;entryDy=0;endFill=1;strokeWidth=2;strokeColor=#2C2C2C;" edge="1" parent="WIyWlLk6GJQsqaUBKTNV-1" source="data_source_2" target="event_hub">
          <mxGeometry width="50" height="50" relative="1" as="geometry">
            <mxPoint x="390" y="410" as="sourcePoint" />
            <mxPoint x="440" y="360" as="targetPoint" />
          </mxGeometry>
        </mxCell>
        
        <mxCell id="conn_3" value="" style="endArrow=block;html=1;rounded=0;exitX=0.5;exitY=1;exitDx=0;exitDy=0;entryX=0.75;entryY=0;entryDx=0;entryDy=0;endFill=1;strokeWidth=2;strokeColor=#2C2C2C;" edge="1" parent="WIyWlLk6GJQsqaUBKTNV-1" source="data_source_3" target="event_hub">
          <mxGeometry width="50" height="50" relative="1" as="geometry">
            <mxPoint x="390" y="410" as="sourcePoint" />
            <mxPoint x="440" y="360" as="targetPoint" />
          </mxGeometry>
        </mxCell>
        
        <mxCell id="conn_4" value="" style="endArrow=block;html=1;rounded=0;exitX=1;exitY=0.5;exitDx=0;exitDy=0;entryX=0;entryY=0.5;entryDx=0;entryDy=0;entryPerimeter=0;endFill=1;strokeWidth=2;strokeColor=#2C2C2C;" edge="1" parent="WIyWlLk6GJQsqaUBKTNV-1" source="event_hub" target="bronze_storage">
          <mxGeometry width="50" height="50" relative="1" as="geometry">
            <mxPoint x="390" y="410" as="sourcePoint" />
            <mxPoint x="440" y="360" as="targetPoint" />
          </mxGeometry>
        </mxCell>
        
        <mxCell id="conn_5" value="" style="endArrow=block;html=1;rounded=0;exitX=0.5;exitY=1;exitDx=0;exitDy=0;exitPerimeter=0;entryX=0.75;entryY=0;entryDx=0;entryDy=0;edgeStyle=orthogonalEdgeStyle;endFill=1;strokeWidth=2;strokeColor=#2C2C2C;" edge="1" parent="WIyWlLk6GJQsqaUBKTNV-1" source="bronze_storage" target="azure_ml">
          <mxGeometry width="50" height="50" relative="1" as="geometry">
            <mxPoint x="390" y="410" as="sourcePoint" />
            <mxPoint x="440" y="360" as="targetPoint" />
            <Array as="points">
              <mxPoint x="600" y="310" />
              <mxPoint x="300" y="310" />
            </Array>
          </mxGeometry>
        </mxCell>
        
        <mxCell id="conn_6" value="" style="endArrow=block;html=1;rounded=0;exitX=0.5;exitY=1;exitDx=0;exitDy=0;entryX=0.5;entryY=0;entryDx=0;entryDy=0;endFill=1;strokeWidth=2;strokeColor=#2C2C2C;" edge="1" parent="WIyWlLk6GJQsqaUBKTNV-1" source="azure_ml" target="genai_enricher">
          <mxGeometry width="50" height="50" relative="1" as="geometry">
            <mxPoint x="390" y="410" as="sourcePoint" />
            <mxPoint x="440" y="360" as="targetPoint" />
          </mxGeometry>
        </mxCell>
        
        <mxCell id="conn_7" value="" style="endArrow=block;html=1;rounded=0;exitX=1;exitY=0.5;exitDx=0;exitDy=0;entryX=0;entryY=0.5;entryDx=0;entryDy=0;endFill=1;strokeWidth=2;strokeColor=#2C2C2C;" edge="1" parent="WIyWlLk6GJQsqaUBKTNV-1" source="genai_enricher" target="validation">
          <mxGeometry width="50" height="50" relative="1" as="geometry">
            <mxPoint x="390" y="410" as="sourcePoint" />
            <mxPoint x="440" y="360" as="targetPoint" />
          </mxGeometry>
        </mxCell>
        
        <mxCell id="conn_8" value="" style="endArrow=block;html=1;rounded=0;exitX=1;exitY=0.5;exitDx=0;exitDy=0;entryX=0;entryY=0.5;entryDx=0;entryDy=0;endFill=1;strokeWidth=2;strokeColor=#2C2C2C;" edge="1" parent="WIyWlLk6GJQsqaUBKTNV-1" source="validation" target="pulser_ops">
          <mxGeometry width="50" height="50" relative="1" as="geometry">
            <mxPoint x="390" y="410" as="sourcePoint" />
            <mxPoint x="440" y="360" as="targetPoint" />
          </mxGeometry>
        </mxCell>
        
        <mxCell id="conn_9" value="" style="endArrow=block;html=1;rounded=0;exitX=0.5;exitY=1;exitDx=0;exitDy=0;entryX=0.75;entryY=0;entryDx=0;entryDy=0;entryPerimeter=0;edgeStyle=orthogonalEdgeStyle;endFill=1;strokeWidth=2;strokeColor=#2C2C2C;" edge="1" parent="WIyWlLk6GJQsqaUBKTNV-1" source="validation" target="azure_sql">
          <mxGeometry width="50" height="50" relative="1" as="geometry">
            <mxPoint x="390" y="510" as="sourcePoint" />
            <mxPoint x="440" y="460" as="targetPoint" />
            <Array as="points">
              <mxPoint x="494" y="530" />
              <mxPoint x="270" y="530" />
            </Array>
          </mxGeometry>
        </mxCell>
        
        <mxCell id="conn_10" value="" style="endArrow=block;html=1;rounded=0;exitX=0.5;exitY=1;exitDx=0;exitDy=0;entryX=0.5;entryY=0;entryDx=0;entryDy=0;edgeStyle=orthogonalEdgeStyle;endFill=1;strokeWidth=2;strokeColor=#2C2C2C;" edge="1" parent="WIyWlLk6GJQsqaUBKTNV-1" source="validation" target="event_hub_out">
          <mxGeometry width="50" height="50" relative="1" as="geometry">
            <mxPoint x="390" y="510" as="sourcePoint" />
            <mxPoint x="440" y="460" as="targetPoint" />
            <Array as="points">
              <mxPoint x="494" y="530" />
              <mxPoint x="585" y="530" />
            </Array>
          </mxGeometry>
        </mxCell>
        
        <mxCell id="conn_11" value="" style="endArrow=block;html=1;rounded=0;exitX=0.5;exitY=1;exitDx=0;exitDy=0;exitPerimeter=0;entryX=0.25;entryY=0;entryDx=0;entryDy=0;edgeStyle=orthogonalEdgeStyle;endFill=1;strokeWidth=2;strokeColor=#2C2C2C;" edge="1" parent="WIyWlLk6GJQsqaUBKTNV-1" source="azure_sql" target="brand_mentions_table">
          <mxGeometry width="50" height="50" relative="1" as="geometry">
            <mxPoint x="390" y="620" as="sourcePoint" />
            <mxPoint x="440" y="570" as="targetPoint" />
            <Array as="points">
              <mxPoint x="240" y="650" />
              <mxPoint x="180" y="650" />
            </Array>
          </mxGeometry>
        </mxCell>
        
        <mxCell id="conn_12" value="" style="endArrow=block;html=1;rounded=0;exitX=0.5;exitY=1;exitDx=0;exitDy=0;exitPerimeter=0;entryX=0.25;entryY=0;entryDx=0;entryDy=0;edgeStyle=orthogonalEdgeStyle;endFill=1;strokeWidth=2;strokeColor=#2C2C2C;" edge="1" parent="WIyWlLk6GJQsqaUBKTNV-1" source="azure_sql" target="mention_scores_table">
          <mxGeometry width="50" height="50" relative="1" as="geometry">
            <mxPoint x="390" y="620" as="sourcePoint" />
            <mxPoint x="440" y="570" as="targetPoint" />
            <Array as="points">
              <mxPoint x="240" y="650" />
              <mxPoint x="360" y="650" />
            </Array>
          </mxGeometry>
        </mxCell>
        
        <mxCell id="conn_13" value="" style="endArrow=block;html=1;rounded=0;entryX=0.5;entryY=0;entryDx=0;entryDy=0;edgeStyle=orthogonalEdgeStyle;endFill=1;strokeWidth=2;strokeColor=#2C2C2C;" edge="1" parent="WIyWlLk6GJQsqaUBKTNV-1" target="react_dashboard">
          <mxGeometry width="50" height="50" relative="1" as="geometry">
            <mxPoint x="410" y="830" as="sourcePoint" />
            <mxPoint x="440" y="780" as="targetPoint" />
          </mxGeometry>
        </mxCell>
        
        <mxCell id="brand_mentions_connector" value="" style="endArrow=none;html=1;rounded=0;exitX=0.5;exitY=1;exitDx=0;exitDy=0;edgeStyle=orthogonalEdgeStyle;strokeWidth=2;strokeColor=#2C2C2C;" edge="1" parent="WIyWlLk6GJQsqaUBKTNV-1" source="brand_mentions_table">
          <mxGeometry width="50" height="50" relative="1" as="geometry">
            <mxPoint x="390" y="720" as="sourcePoint" />
            <mxPoint x="410" y="830" as="targetPoint" />
            <Array as="points">
              <mxPoint x="220" y="830" />
            </Array>
          </mxGeometry>
        </mxCell>
        
        <mxCell id="mention_scores_connector" value="" style="endArrow=none;html=1;rounded=0;exitX=0.5;exitY=1;exitDx=0;exitDy=0;edgeStyle=orthogonalEdgeStyle;strokeWidth=2;strokeColor=#2C2C2C;" edge="1" parent="WIyWlLk6GJQsqaUBKTNV-1" source="mention_scores_table">
          <mxGeometry width="50" height="50" relative="1" as="geometry">
            <mxPoint x="390" y="720" as="sourcePoint" />
            <mxPoint x="410" y="830" as="targetPoint" />
            <Array as="points">
              <mxPoint x="400" y="830" />
            </Array>
          </mxGeometry>
        </mxCell>
        
        <mxCell id="event_hub_out_connector" value="" style="endArrow=none;html=1;rounded=0;exitX=0.5;exitY=1;exitDx=0;exitDy=0;edgeStyle=orthogonalEdgeStyle;strokeWidth=2;strokeColor=#2C2C2C;" edge="1" parent="WIyWlLk6GJQsqaUBKTNV-1" source="event_hub_out">
          <mxGeometry width="50" height="50" relative="1" as="geometry">
            <mxPoint x="390" y="720" as="sourcePoint" />
            <mxPoint x="410" y="830" as="targetPoint" />
            <Array as="points">
              <mxPoint x="585" y="830" />
            </Array>
          </mxGeometry>
        </mxCell>
        
        <!-- Expanded Brand Mention Structure -->
        <mxCell id="expanded_brand_mention" value="<b>Insight Structure</b>" style="swimlane;fontStyle=1;childLayout=stackLayout;horizontal=1;startSize=30;horizontalStack=0;resizeParent=1;resizeParentMax=0;resizeLast=0;collapsible=1;marginBottom=0;whiteSpace=wrap;html=1;fillColor=#FFD700;strokeColor=#2C2C2C;strokeWidth=2;fontFamily=Helvetica Neue,Helvetica,Arial,sans-serif;" vertex="1" parent="WIyWlLk6GJQsqaUBKTNV-1">
          <mxGeometry x="500" y="670" width="190" height="140" as="geometry" />
        </mxCell>
        
        <mxCell id="ebm_1" value="<div style="text-align: left;">Identity: {brand, product, category}</div>" style="text;strokeColor=#2C2C2C;fillColor=#FFD700;align=left;verticalAlign=middle;spacingLeft=4;spacingRight=4;overflow=hidden;points=[[0,0.5],[1,0.5]];portConstraint=eastwest;rotatable=0;whiteSpace=wrap;html=1;fontFamily=Helvetica Neue,Helvetica,Arial,sans-serif;fontStyle=1" vertex="1" parent="expanded_brand_mention">
          <mxGeometry y="30" width="190" height="30" as="geometry" />
        </mxCell>
        
        <mxCell id="ebm_2" value="<div style="text-align: left;">Context: {location, situation, timing}</div>" style="text;strokeColor=#2C2C2C;fillColor=#FFD700;align=left;verticalAlign=middle;spacingLeft=4;spacingRight=4;overflow=hidden;points=[[0,0.5],[1,0.5]];portConstraint=eastwest;rotatable=0;whiteSpace=wrap;html=1;fontFamily=Helvetica Neue,Helvetica,Arial,sans-serif;" vertex="1" parent="expanded_brand_mention">
          <mxGeometry y="60" width="190" height="30" as="geometry" />
        </mxCell>
        
        <mxCell id="ebm_3" value="<div style="text-align: left;">Sentiment: {emotion, intent, attitude}</div>" style="text;strokeColor=#2C2C2C;fillColor=#FFD700;align=left;verticalAlign=middle;spacingLeft=4;spacingRight=4;overflow=hidden;points=[[0,0.5],[1,0.5]];portConstraint=eastwest;rotatable=0;whiteSpace=wrap;html=1;fontFamily=Helvetica Neue,Helvetica,Arial,sans-serif;" vertex="1" parent="expanded_brand_mention">
          <mxGeometry y="90" width="190" height="30" as="geometry" />
        </mxCell>
        
        <mxCell id="ebm_4" value="<div style="text-align: left;">Value: {relevance, actionability}</div>" style="text;strokeColor=#2C2C2C;fillColor=#FFD700;align=left;verticalAlign=middle;spacingLeft=4;spacingRight=4;overflow=hidden;points=[[0,0.5],[1,0.5]];portConstraint=eastwest;rotatable=0;whiteSpace=wrap;html=1;fontFamily=Helvetica Neue,Helvetica,Arial,sans-serif;" vertex="1" parent="expanded_brand_mention">
          <mxGeometry y="120" width="190" height="20" as="geometry" />
        </mxCell>
        
        <!-- Additional labels -->
        <mxCell id="ebm_connector_1" value="" style="endArrow=block;startArrow=block;html=1;rounded=0;exitX=1;exitY=0.5;exitDx=0;exitDy=0;entryX=0;entryY=0.5;entryDx=0;entryDy=0;endFill=1;startFill=1;strokeWidth=2;strokeColor=#2C2C2C;" edge="1" parent="WIyWlLk6GJQsqaUBKTNV-1" source="brand_mentions_table" target="ebm_2">
          <mxGeometry width="50" height="50" relative="1" as="geometry">
            <mxPoint x="390" y="720" as="sourcePoint" />
            <mxPoint x="440" y="670" as="targetPoint" />
          </mxGeometry>
        </mxCell>
        
        <mxCell id="ebm_connector_2" value="" style="endArrow=block;startArrow=block;html=1;rounded=0;exitX=1;exitY=0.5;exitDx=0;exitDy=0;entryX=0;entryY=0.5;entryDx=0;entryDy=0;endFill=1;startFill=1;strokeWidth=2;strokeColor=#2C2C2C;" edge="1" parent="WIyWlLk6GJQsqaUBKTNV-1" source="mention_scores_table" target="ebm_3">
          <mxGeometry width="50" height="50" relative="1" as="geometry">
            <mxPoint x="390" y="720" as="sourcePoint" />
            <mxPoint x="440" y="670" as="targetPoint" />
          </mxGeometry>
        </mxCell>
        
        <mxCell id="label_1" value="Live Data Collection from IoT Devices" style="text;html=1;strokeColor=none;fillColor=none;align=center;verticalAlign=middle;whiteSpace=wrap;rounded=0;fontStyle=3;fontFamily=Helvetica Neue,Helvetica,Arial,sans-serif;" vertex="1" parent="WIyWlLk6GJQsqaUBKTNV-1">
          <mxGeometry x="290" y="270" width="240" height="30" as="geometry" />
        </mxCell>
        
        <mxCell id="label_2" value="LLM-Powered Brand Detection &amp; Validation Pipeline" style="text;html=1;strokeColor=none;fillColor=none;align=center;verticalAlign=middle;whiteSpace=wrap;rounded=0;fontStyle=3;fontFamily=Helvetica Neue,Helvetica,Arial,sans-serif;" vertex="1" parent="WIyWlLk6GJQsqaUBKTNV-1">
          <mxGeometry x="290" y="490" width="260" height="30" as="geometry" />
        </mxCell>
        
        <mxCell id="label_3" value="Brand Insights Dashboard" style="text;html=1;strokeColor=none;fillColor=none;align=center;verticalAlign=middle;whiteSpace=wrap;rounded=0;fontStyle=3;fontFamily=Helvetica Neue,Helvetica,Arial,sans-serif;" vertex="1" parent="WIyWlLk6GJQsqaUBKTNV-1">
          <mxGeometry x="300" y="950" width="220" height="30" as="geometry" />
        </mxCell>
        
        <!-- Color Legend -->
        <mxCell id="color_legend" value="" style="rounded=0;whiteSpace=wrap;html=1;fillColor=#F2F2F2;strokeColor=#2C2C2C;strokeWidth=2;" vertex="1" parent="WIyWlLk6GJQsqaUBKTNV-1">
          <mxGeometry x="90" y="1000" width="640" height="120" as="geometry" />
        </mxCell>
        
        <mxCell id="legend_title" value="TBWA COLOR SYSTEM LEGEND" style="text;html=1;strokeColor=none;fillColor=none;align=center;verticalAlign=middle;whiteSpace=wrap;rounded=0;fontSize=14;fontStyle=1;fontFamily=Helvetica Neue,Helvetica,Arial,sans-serif;" vertex="1" parent="WIyWlLk6GJQsqaUBKTNV-1">
          <mxGeometry x="300" y="1010" width="220" height="20" as="geometry" />
        </mxCell>
        
        <mxCell id="legend_1" value="" style="rounded=0;whiteSpace=wrap;html=1;fillColor=#FFD700;strokeColor=#2C2C2C;strokeWidth=1;" vertex="1" parent="WIyWlLk6GJQsqaUBKTNV-1">
          <mxGeometry x="110" y="1040" width="20" height="20" as="geometry" />
        </mxCell>
        
        <mxCell id="legend_1_text" value="Disruption Data (Gold Layer / Insights)" style="text;html=1;strokeColor=none;fillColor=none;align=left;verticalAlign=middle;whiteSpace=wrap;rounded=0;fontFamily=Helvetica Neue,Helvetica,Arial,sans-serif;" vertex="1" parent="WIyWlLk6GJQsqaUBKTNV-1">
          <mxGeometry x="140" y="1040" width="220" height="20" as="geometry" />
        </mxCell>
        
        <mxCell id="legend_2" value="" style="rounded=0;whiteSpace=wrap;html=1;fillColor=#000000;strokeColor=#2C2C2C;strokeWidth=1;" vertex="1" parent="WIyWlLk6GJQsqaUBKTNV-1">
          <mxGeometry x="110" y="1070" width="20" height="20" as="geometry" />
        </mxCell>
        
        <mxCell id="legend_2_text" value="System Control / Automation" style="text;html=1;strokeColor=none;fillColor=none;align=left;verticalAlign=middle;whiteSpace=wrap;rounded=0;fontFamily=Helvetica Neue,Helvetica,Arial,sans-serif;" vertex="1" parent="WIyWlLk6GJQsqaUBKTNV-1">
          <mxGeometry x="140" y="1070" width="220" height="20" as="geometry" />
        </mxCell>
        
        <mxCell id="legend_3" value="" style="rounded=0;whiteSpace=wrap;html=1;fillColor=#F2F2F2;strokeColor=#2C2C2C;strokeWidth=1;" vertex="1" parent="WIyWlLk6GJQsqaUBKTNV-1">
          <mxGeometry x="360" y="1040" width="20" height="20" as="geometry" />
        </mxCell>
        
        <mxCell id="legend_3_text" value="Raw / Unfiltered Input" style="text;html=1;strokeColor=none;fillColor=none;align=left;verticalAlign=middle;whiteSpace=wrap;rounded=0;fontFamily=Helvetica Neue,Helvetica,Arial,sans-serif;" vertex="1" parent="WIyWlLk6GJQsqaUBKTNV-1">
          <mxGeometry x="390" y="1040" width="130" height="20" as="geometry" />
        </mxCell>
        
        <mxCell id="legend_4" value="" style="rounded=0;whiteSpace=wrap;html=1;fillColor=#FF6A00;strokeColor=#2C2C2C;strokeWidth=1;" vertex="1" parent="WIyWlLk6GJQsqaUBKTNV-1">
          <mxGeometry x="360" y="1070" width="20" height="20" as="geometry" />
        </mxCell>
        
        <mxCell id="legend_4_text" value="Interaction Data" style="text;html=1;strokeColor=none;fillColor=none;align=left;verticalAlign=middle;whiteSpace=wrap;rounded=0;fontFamily=Helvetica Neue,Helvetica,Arial,sans-serif;" vertex="1" parent="WIyWlLk6GJQsqaUBKTNV-1">
          <mxGeometry x="390" y="1070" width="120" height="20" as="geometry" />
        </mxCell>
        
        <mxCell id="legend_5" value="" style="rounded=0;whiteSpace=wrap;html=1;fillColor=#0033A0;strokeColor=#2C2C2C;strokeWidth=1;" vertex="1" parent="WIyWlLk6GJQsqaUBKTNV-1">
          <mxGeometry x="520" y="1040" width="20" height="20" as="geometry" />
        </mxCell>
        
        <mxCell id="legend_5_text" value="Verified Master Data" style="text;html=1;strokeColor=none;fillColor=none;align=left;verticalAlign=middle;whiteSpace=wrap;rounded=0;fontFamily=Helvetica Neue,Helvetica,Arial,sans-serif;" vertex="1" parent="WIyWlLk6GJQsqaUBKTNV-1">
          <mxGeometry x="550" y="1040" width="130" height="20" as="geometry" />
        </mxCell>
        
        <mxCell id="legend_6" value="" style="rounded=0;whiteSpace=wrap;html=1;fillColor=#D72638;strokeColor=#2C2C2C;strokeWidth=1;" vertex="1" parent="WIyWlLk6GJQsqaUBKTNV-1">
          <mxGeometry x="520" y="1070" width="20" height="20" as="geometry" />
        </mxCell>
        
        <mxCell id="legend_6_text" value="QA + Guardrails" style="text;html=1;strokeColor=none;fillColor=none;align=left;verticalAlign=middle;whiteSpace=wrap;rounded=0;fontFamily=Helvetica Neue,Helvetica,Arial,sans-serif;" vertex="1" parent="WIyWlLk6GJQsqaUBKTNV-1">
          <mxGeometry x="550" y="1070" width="130" height="20" as="geometry" />
        </mxCell>
        
        <!-- TBWA Branding -->
        <mxCell id="tbwa_copyright" value="Â© 2025 TBWA\DISRUPTIONÂ®" style="text;html=1;strokeColor=none;fillColor=none;align=right;verticalAlign=middle;whiteSpace=wrap;rounded=0;fontSize=10;fontFamily=Helvetica Neue,Helvetica,Arial,sans-serif;" vertex="1" parent="WIyWlLk6GJQsqaUBKTNV-1">
          <mxGeometry x="570" y="1130" width="160" height="20" as="geometry" />
        </mxCell>
      </root>
    </mxGraphModel>
  </diagram>
</mxfile>